[Header]
FileType HTR
DataType HTRS
FileVersion 1
NumSegments 22
NumFrames 4
DataFrameRate 24
EulerRotationOrder ZYX
CalibrationUnits mm
RotationUnits Degrees
GlobalAxisofGravity Y
BoneLengthAxis Y
ScaleFactor 1.0
[SegmentNames&Hierarchy]
reference	GLOBAL
Hips	reference
Spine	Hips
Spine1	Spine
Neck	Spine1
Head	Neck
LeftShoulder	Spine1
LeftArm	LeftShoulder
LeftForeArm	LeftArm
LeftHand	LeftForeArm
RightShoulder	Spine1
RightArm	RightShoulder
RightForeArm	RightArm
RightHand	RightForeArm
LeftUpLeg	Hips
LeftLeg	LeftUpLeg
LeftFoot	LeftLeg
LeftToeBase	LeftFoot
RightUpLeg	Hips
RightLeg	RightUpLeg
RightFoot	RightLeg
RightToeBase	RightFoot
[BasePosition]
reference	0	0	0	0	0	0	1
Hips	0	0	0	0	0	0	1
Spine	0	0	0	0	-0	90	1
Spine1	0	0	0	0	0	0	1
Neck	0	0	0	-7.352327771	-7.352327771	90	1
Head	0	0	0	0	-0	90	1
LeftShoulder	0	0	0	0	0	0	1
LeftArm	0	0	0	0	0	0	1
LeftForeArm	0	0	0	0	0	0	1
LeftHand	0	0	0	0	0	0	1
RightShoulder	0	0	0	0	-0	180	1
RightArm	0	0	0	0	-0	180	1
RightForeArm	0	0	0	0	-0	180	1
RightHand	0	0	0	0	-0	180	1
LeftUpLeg	0	0	0	0	-0	-90	1
LeftLeg	0	0	0	0	-0	-90	1
LeftFoot	0	0	0	66.57146043	-66.57146043	-90	1
LeftToeBase	0	0	0	0	-90	0	1
RightUpLeg	0	0	0	0	-0	-90	1
RightLeg	0	0	0	0	-0	-90	1
RightFoot	0	0	0	66.57146043	-66.57146043	-90	1
RightToeBase	0	0	0	0	-90	0	1
[reference]
48	0	0	0	0	-0	0	1.0
49	0	0	0	0	-0	0	1.0
50	0	0	0	0	-0	0	1.0
51	0	0	0	0	-0	0	1.0
[Hips]
48	1.256684065	8.571237564	2.444789886	177.6901703	-139.1470337	-183.5484009	1.0
49	1.046519995	8.581528664	2.635900021	177.44104	-141.6130829	-183.8734436	1.0
50	0.8133943081	8.586122513	2.75357461	180.5477295	-144.5689545	-186.4308777	1.0
51	0.6152714491	8.58337307	2.91136837	180.665802	-147.5805359	-187.3821869	1.0
[Spine]
48	0	0.7457100153	0	-4.895551682	-6.952821732	-86.76140594	1.0
49	0	0.7457100153	0	-4.588873386	-6.15400219	-86.19484711	1.0
50	0	0.7457100153	0	-6.200661659	-5.536747932	-84.65840912	1.0
51	0	0.7457100153	0	-6.415317535	-4.21818924	-83.5748291	1.0
[Spine1]
48	0	2.140589952	0	14.43716908	-2.36880827	0.06952656806	1.0
49	0	2.140589952	0	13.29710674	-2.15048027	0.3869082928	1.0
50	0	2.140589952	0	12.67785454	-2.003377676	1.825039029	1.0
51	0	2.140589952	0	13.17435074	-1.74990201	2.007543564	1.0
[Neck]
48	0	2.32246995	0	-8.73063755	16.03086662	-91.02052307	1.0
49	0	2.32246995	0	-7.685214996	15.32737541	-92.27737427	1.0
50	0	2.32246995	0	-6.179962635	14.63915634	-92.18839264	1.0
51	0	2.32246995	0	-5.99403429	13.88769341	-92.57678223	1.0
[Head]
48	0	1.409579992	0.1818799973	-5.082015514	9.358798981	-94.7086792	1.0
49	0	1.409579992	0.1818799973	-4.785128593	8.446038246	-92.55088806	1.0
50	0	1.409579992	0.1818799973	-5.479169369	7.819633961	-94.42271423	1.0
51	0	1.409579992	0.1818799973	-5.284459114	7.055400848	-94.51704407	1.0
[LeftShoulder]
48	0.3668199778	1.946700096	-0.02662999928	-18.07034492	-13.69469166	-4.901191235	1.0
49	0.3668199778	1.946700096	-0.02662999928	-17.67666817	-13.0732336	-4.681776524	1.0
50	0.3668199778	1.946700096	-0.02662999928	-17.56589317	-12.7468338	-4.651256561	1.0
51	0.3668199778	1.946700096	-0.02662999928	-18.08576393	-12.6601553	-4.415696621	1.0
[LeftArm]
48	1.140689969	0	0	60.6811142	5.092388153	-78.91619873	1.0
49	1.140689969	0	0	59.04634857	6.454808235	-79.21920013	1.0
50	1.140689969	0	0	56.8763237	7.289012432	-78.06288147	1.0
51	1.140689969	0	0	54.69240189	8.457323074	-76.1085968	1.0
[LeftForeArm]
48	2.749800205	0	0	-11.39769268	-24.62952232	2.727519989	1.0
49	2.749800205	0	0	-13.09443951	-19.99189949	2.399720192	1.0
50	2.749800205	0	0	-13.52175808	-16.8390007	1.200130105	1.0
51	2.749800205	0	0	-11.33103466	-14.27153301	0.8655595779	1.0
[LeftHand]
48	2.295179844	0	0	-10.44475746	-9.396657944	-4.271444798	1.0
49	2.295179844	0	0	-12.20046234	-6.561521053	-8.200385094	1.0
50	2.295179844	0	0	-13.0709095	-5.355743885	-5.868540764	1.0
51	2.295179844	0	0	-11.01668358	-5.357487679	-4.427551746	1.0
[RightShoulder]
48	-0.3601199985	1.946700096	-0.02662999928	-3.553503752	1.274968982	176.0115051	1.0
49	-0.3601199985	1.946700096	-0.02662999928	-4.017821312	2.000391483	176.0127411	1.0
50	-0.3601199985	1.946700096	-0.02662999928	-4.471164703	2.141572952	175.8469849	1.0
51	-0.3601199985	1.946700096	-0.02662999928	-5.381509304	2.825420856	176.2169495	1.0
[RightArm]
48	-1.140689969	0	0	28.92283249	-10.05640793	-103.3664856	1.0
49	-1.140689969	0	0	32.97091293	-9.152508736	-103.2808838	1.0
50	-1.140689969	0	0	36.18862915	-7.24949646	-103.2948914	1.0
51	-1.140689969	0	0	41.47118759	-4.698336601	-103.4358826	1.0
[RightForeArm]
48	-2.749800205	0	0	7.844121456	5.960990906	189.1698303	1.0
49	-2.749800205	0	0	6.346786022	6.539124012	187.8078766	1.0
50	-2.749800205	0	0	5.223975658	7.14376545	186.6998749	1.0
51	-2.749800205	0	0	4.067174911	7.581502438	185.1569672	1.0
[RightHand]
48	-2.295179844	0	0	7.228765488	4.731215477	176.6871033	1.0
49	-2.295179844	0	0	5.780172348	5.018736362	177.2638092	1.0
50	-2.295179844	0	0	4.686569691	5.413671494	177.4875183	1.0
51	-2.295179844	0	0	3.558225155	5.715860367	176.658905	1.0
[LeftUpLeg]
48	0.9094099998	0	0	13.99385071	-1.78974545	85.3032074	1.0
49	0.9094099998	0	0	10.71809292	1.292478204	88.20956421	1.0
50	0.9094099998	0	0	2.969365835	9.281995773	93.49671936	1.0
51	0.9094099998	0	0	-1.946350574	13.77767467	95.18663025	1.0
[LeftLeg]
48	0	-4.498080254	0	32.20352554	-12.322505	85.43605804	1.0
49	0	-4.498080254	0	40.73680115	-6.067830563	83.86013031	1.0
50	0	-4.498080254	0	53.42521667	-5.515897751	85.60355377	1.0
51	0	-4.498080254	0	63.11873245	-5.789099693	86.525177	1.0
[LeftFoot]
48	0	-3.729400158	0	-94.22808838	111.1677704	-55.11201859	1.0
49	0	-3.729400158	0	-85.14546204	109.5548096	-53.45298767	1.0
50	0	-3.729400158	0	-87.32525635	107.630722	-59.79001617	1.0
51	0	-3.729400158	0	-74.56269836	107.3884583	-46.77999878	1.0
[LeftToeBase]
48	0	-0.5911099911	1.364109993	0	0	0	1.0
49	0	-0.5911099911	1.364109993	0	0	0	1.0
50	0	-0.5911099911	1.364109993	0	0	0	1.0
51	0	-0.5911099911	1.364109993	0	0	0	1.0
[RightUpLeg]
48	-0.9094099998	0	0	-5.791931152	1.70074296	92.91706848	1.0
49	-0.9094099998	0	0	-2.711103201	0.4569520056	92.18955231	1.0
50	-0.9094099998	0	0	-2.480978966	0.2528533936	94.08223724	1.0
51	-0.9094099998	0	0	0.6918828487	-0.7541315556	94.99152374	1.0
[RightLeg]
48	0	-4.498080254	0	10.48560143	-0.9593558908	87.26652527	1.0
49	0	-4.498080254	0	9.308503151	0.09450986236	89.9493103	1.0
50	0	-4.498080254	0	8.459690094	0.3815823793	92.27875519	1.0
51	0	-4.498080254	0	6.868601799	-1.427709937	92.75088501	1.0
[RightFoot]
48	0	-3.729400158	0	73.26007843	61.29672623	108.9534912	1.0
49	0	-3.729400158	0	67.30479431	62.21773911	104.0059357	1.0
50	0	-3.729400158	0	58.75003815	63.77504349	97.43106079	1.0
51	0	-3.729400158	0	58.88620377	65.30387115	100.2791672	1.0
[RightToeBase]
48	0	-0.5911099911	1.364109993	0	0	0	1.0
49	0	-0.5911099911	1.364109993	0	0	0	1.0
50	0	-0.5911099911	1.364109993	0	0	0	1.0
51	0	-0.5911099911	1.364109993	0	0	0	1.0
[EndOfFile]
